<svg version="1.2" baseProfile="tiny-ps" xmlns="http://www.w3.org/2000/svg" viewBox="0 0 1280 1280" width="128" height="128">
	<title>New Project</title>
	<style>
		tspan { white-space:pre }
		.shp0 { fill: #3e82e5 } 
		.shp1 { fill: #ffffff } 
	</style>
	<g id="Background">
		<path id="Path 1" class="shp0" d="M104.08 273.42L104 526C123.74 543.44 136 554.33 143.99 561.44C151.97 568.56 165 580.26 172.95 587.44C180.89 594.63 192.64 605.23 199.04 611C205.45 616.77 215.14 625.55 220.59 630.5C226.03 635.45 238.81 647.15 248.99 656.51C259.17 665.86 270.43 675.98 274 678.99C277.57 682.01 286.56 689.88 293.96 696.48C301.37 703.09 316.01 716.38 326.5 726C336.99 735.63 349.13 746.65 353.48 750.5C357.83 754.35 365.69 761.52 370.94 766.43C376.2 771.34 385.95 779.89 392.62 785.43C399.29 790.97 406.82 796.96 409.37 798.75C413.46 801.62 414.06 801.8 414.55 800.25C414.86 799.29 415.54 785.23 416.08 769C416.61 752.77 417.33 637.35 417.67 512.5L418.3 285.5C547.1 286.66 593.95 287.47 605.5 288.07C619.23 288.77 629.36 289.81 634.75 291.07C639.29 292.13 646.49 294.39 650.75 296.1C655.01 297.8 660.98 300.45 664 301.98C667.02 303.52 673.1 307.67 677.5 311.22C681.9 314.76 687.68 320.1 690.35 323.08C693.02 326.06 698 333 701.42 338.5C704.84 344 708.62 351.09 709.82 354.25C711.02 357.41 713.12 366.41 714.49 374.25C715.86 382.09 716.99 391.54 716.99 395.25C717 398.96 716.08 407.29 714.96 413.75C713.84 420.21 711.56 429.55 709.9 434.5C708.24 439.45 705.47 446.43 703.75 450C701.26 455.19 698.09 458.99 688.06 468.86C681.13 475.68 671.69 483.78 667 486.92C662.33 490.06 655.8 493.65 652.5 494.9C649.2 496.15 641.55 498.29 635.5 499.65C629.45 501.02 619.55 502.55 613.5 503.06C607.45 503.56 571.79 503.97 534.25 503.98L466 504L466 733C552.41 733.81 590.44 734.48 606.25 735.02C623.57 735.61 638.08 736.6 642.75 737.5C647.01 738.33 653.42 739.96 657 741.14C660.58 742.31 668 745.41 673.5 748.01C679 750.62 686.42 755.09 690 757.95C693.58 760.81 700.95 767.95 706.39 773.82C711.83 779.7 718.71 787.42 721.66 791C725.21 795.29 728.6 801.07 731.62 808C734.14 813.77 737.02 821.65 738.01 825.5C739 829.35 740.36 838.13 741.03 845C741.73 852.24 741.96 861.5 741.57 867C741.2 872.23 740.46 879.42 739.93 883C739.36 886.82 736.42 895.69 732.79 904.5C729.4 912.75 725.42 921.3 723.94 923.5C722.47 925.7 717.47 931.77 712.85 937C708.22 942.23 700.85 949.25 696.47 952.61C692.08 955.96 686.02 960.22 683 962.07C679.98 963.92 673.9 966.96 669.5 968.83C665.1 970.69 657.67 973.54 653 975.14C648.33 976.75 641.8 978.8 638.5 979.71C633.16 981.18 622.47 981.39 541.5 981.63C487.44 981.79 442.99 982.36 432 983.05C419.93 983.8 359.68 984.34 258.75 984.6L104 985L104 1259C143.91 1258.98 266.43 1258.52 402 1257.98C537.58 1257.43 662.45 1256.55 679.5 1256.02C703.73 1255.26 714.32 1254.49 728 1252.47C737.63 1251.06 750.45 1248.83 756.5 1247.52C762.55 1246.22 775.6 1242.89 785.5 1240.14C795.4 1237.38 810.92 1232.44 820 1229.15C829.08 1225.86 841.9 1221.08 848.5 1218.53C855.1 1215.98 864.55 1211.84 869.5 1209.35C874.45 1206.85 884.13 1201.21 891 1196.81C897.88 1192.42 907.05 1186.28 911.38 1183.16C915.72 1180.05 925.17 1172.79 932.38 1167.02C939.6 1161.26 950.62 1151.36 956.88 1145.02C963.15 1138.69 971.63 1129.67 975.75 1125C979.86 1120.33 986.06 1112.22 989.52 1107C992.98 1101.78 999.57 1090.75 1004.17 1082.5C1008.77 1074.25 1016.21 1059.4 1020.7 1049.5C1025.2 1039.6 1029.81 1029.14 1030.94 1026.25C1032.07 1023.36 1034.16 1016.39 1035.57 1010.75C1036.98 1005.11 1041.02 989.92 1044.54 977C1048.06 964.08 1052.1 946.52 1053.5 938C1055.29 927.19 1056.4 915.09 1057.16 898C1057.97 880.04 1057.96 869.9 1057.14 860C1056.52 852.58 1055.13 841.55 1054.04 835.5C1052.96 829.45 1050.68 820 1048.98 814.5C1047.28 809 1044.12 798.09 1041.95 790.25C1039.78 782.41 1035.94 770.26 1033.41 763.25C1030.89 756.24 1025.68 744.42 1021.83 737C1017.98 729.58 1011.09 718.1 1006.52 711.5C1001.95 704.9 993.32 693.65 987.35 686.5C981.38 679.35 969.75 666.75 961.5 658.49C953.25 650.24 943.35 640.95 939.5 637.86C935.65 634.77 926.65 628.52 919.5 623.98C912.35 619.44 902.45 613.47 897.5 610.72C892.55 607.96 887.04 604.65 885.25 603.36C883.46 602.06 881.99 600.66 881.98 600.25C881.96 599.84 883.65 598.95 885.73 598.28C887.8 597.61 896.48 591.62 905 584.98C913.52 578.34 923.39 570.34 926.93 567.2C930.46 564.07 936.78 557.23 940.97 552C945.15 546.77 950.82 539.35 953.57 535.5C956.31 531.65 963.46 520.63 969.46 511C975.46 501.38 982.02 489.9 984.06 485.5C986.09 481.1 990.05 471.2 992.85 463.5C995.66 455.8 999.05 444.1 1000.4 437.5C1001.74 430.9 1003.32 421.11 1003.92 415.75C1004.51 410.39 1005 398.46 1005 389.25C1004.99 380.04 1004.33 362.15 1003.52 349.5C1002.7 336.85 1001.33 322.45 1000.47 317.5C999.61 312.55 997.84 304.23 996.54 299C995.24 293.77 992.96 283.88 991.48 277C989.84 269.39 987.02 260.39 984.29 254C981.82 248.22 975.13 234.05 969.43 222.5C963.73 210.95 956.01 196.15 952.28 189.61C948.16 182.38 940.45 171.41 932.63 161.61C925.54 152.75 919.17 144.6 918.46 143.5C917.75 142.4 912.97 137.92 907.84 133.55C902.7 129.17 894 121.29 888.5 116.03C883 110.78 874 103.05 868.5 98.87C863 94.69 851.52 87.06 843 81.92C834.48 76.78 821.42 69.79 814 66.39C806.58 62.99 793.75 57.73 785.5 54.7C777.25 51.67 763.3 46.38 754.5 42.95C740.66 37.55 735.26 36.06 714.5 31.89C701.3 29.24 685.33 26.38 679 25.53C672.67 24.68 660.52 23.49 652 22.88C641.45 22.12 551.44 21.62 370.33 21.3L104.17 20.83L104.08 273.42Z" />
		<path id="Path 2" class="shp1" d="M773 24.25C773 24.66 774.69 25.25 776.75 25.55C778.81 25.85 785.67 27.01 792 28.13C798.33 29.24 810.02 31.48 818 33.09C825.98 34.71 834.75 36.76 837.5 37.64C840.25 38.53 851.5 42.72 862.5 46.96C873.5 51.2 886.55 56.14 891.5 57.95C896.45 59.76 906.8 64.27 914.5 67.97C922.2 71.67 934.8 78.48 942.5 83.11C950.2 87.74 960.55 94.67 965.5 98.51C970.45 102.35 978.33 109.12 983 113.55C987.67 117.98 996.42 125.86 1002.43 131.05C1008.44 136.25 1014.61 142.07 1016.15 144C1017.68 145.93 1024.28 154.25 1030.81 162.5C1037.33 170.75 1044.28 180.2 1046.24 183.5C1048.2 186.8 1053.27 196.03 1057.49 204C1061.72 211.97 1068.79 226.15 1073.2 235.5C1077.61 244.85 1082.47 255.65 1084.01 259.5C1085.54 263.35 1088.48 274.15 1090.52 283.5C1092.57 292.85 1095.31 305.45 1096.6 311.5C1098 318.04 1099.61 331.22 1100.57 344C1101.74 359.57 1102.05 373.22 1101.71 393.5C1101.26 419.85 1101.05 422.35 1098.19 436C1096.33 444.91 1093.06 456.09 1089.72 465C1086.73 472.98 1082.95 482.43 1081.32 486C1079.69 489.57 1073.04 501.05 1066.54 511.5C1060.04 521.95 1050.34 536.35 1044.98 543.5C1039.62 550.65 1031.22 560.33 1026.31 565C1021.4 569.67 1014.71 575.52 1011.44 577.99C1008.17 580.46 1001.9 585.36 997.5 588.89C993.1 592.41 987.02 596.38 984 597.71L978.5 600.12C983.15 603.74 988.33 606.94 993 609.57C997.67 612.2 1007.98 618.43 1015.9 623.42C1023.82 628.42 1034.4 635.93 1039.4 640.13C1044.41 644.32 1054.59 654 1062.03 661.63C1069.46 669.26 1079.86 680.67 1085.13 687C1090.39 693.33 1097.61 702.55 1101.17 707.5C1104.72 712.45 1109.68 719.88 1112.18 724C1114.68 728.13 1118.65 735.33 1121.01 740C1123.36 744.67 1127.27 753.67 1129.68 760C1132.1 766.33 1136.29 779.38 1138.99 789C1141.69 798.63 1145.22 810.77 1146.84 816C1148.46 821.23 1150.78 831.13 1152 838C1153.68 847.45 1154.34 856 1154.73 873C1155.01 885.38 1154.74 902.25 1154.14 910.5C1153.54 918.75 1151.93 932.02 1150.57 940C1149.21 947.98 1147.25 957.65 1146.21 961.5C1145.18 965.35 1141.77 978.17 1138.64 990C1135.5 1001.83 1131.58 1015.77 1129.93 1021C1128.27 1026.22 1122.54 1039.95 1117.18 1051.5C1111.82 1063.05 1103.68 1079.03 1099.11 1087C1094.53 1094.97 1088.29 1105.1 1085.24 1109.5C1082.19 1113.9 1077.18 1120.42 1074.11 1124C1071.04 1127.58 1063.57 1135.61 1057.51 1141.86C1051.45 1148.11 1041.78 1157.15 1036 1161.95C1030.22 1166.76 1020.1 1174.71 1013.5 1179.62C1006.9 1184.52 995.88 1192.11 989 1196.48C982.13 1200.84 972 1206.69 966.5 1209.48C961 1212.27 949.75 1217.1 941.5 1220.2C933.25 1223.31 922.23 1227.43 917 1229.35C911.77 1231.28 901.42 1234.66 894 1236.87C886.58 1239.08 877.91 1241.59 874.75 1242.45C871.59 1243.3 869.01 1244.34 869.02 1244.75C869.03 1245.16 873.64 1244.73 879.27 1243.79C884.9 1242.85 898.73 1239.77 910 1236.94C921.27 1234.11 940.17 1228.64 952 1224.79C963.83 1220.94 979.35 1215.4 986.5 1212.48C993.65 1209.57 1002.42 1205.97 1006 1204.48C1009.58 1202.99 1016.55 1199.74 1021.5 1197.26C1026.45 1194.77 1037.47 1188.68 1046 1183.71C1054.53 1178.75 1066.9 1171.1 1073.5 1166.72C1080.1 1162.34 1090 1155.24 1095.5 1150.94C1101 1146.65 1108.9 1139.84 1113.06 1135.82C1117.22 1131.79 1126.29 1122.2 1133.22 1114.5C1140.14 1106.8 1147.25 1098.7 1149.01 1096.5C1150.77 1094.3 1156.77 1085.97 1162.33 1078C1167.89 1070.03 1175.19 1059 1178.54 1053.5C1181.89 1048 1187.35 1038.33 1190.68 1032C1194.01 1025.67 1197.73 1017.13 1198.94 1013C1200.16 1008.88 1201.8 1004.49 1202.58 1003.25C1203.36 1002.01 1206.95 992.34 1210.57 981.75C1214.18 971.16 1218.69 955.75 1220.59 947.5C1222.5 939.25 1224.98 927.1 1226.1 920.5C1227.61 911.6 1228.39 900.37 1229.13 877C1229.72 858.07 1229.96 754.14 1229.74 616.5L1229.37 387.5C1222.08 349.52 1218.89 334 1217.58 328.5C1216.26 323 1212.95 311.98 1210.21 304C1207.48 296.02 1203.18 284.1 1200.67 277.5C1198.15 270.9 1192.8 257.85 1188.77 248.5C1184.54 238.68 1178.52 226.85 1174.51 220.5C1170.7 214.45 1164.13 204.55 1159.91 198.5C1155.7 192.45 1147.13 181.67 1140.87 174.55C1134.62 167.43 1123.42 155.46 1116 147.97C1108.58 140.47 1099.13 131.63 1095 128.31C1090.88 124.99 1082.78 119.22 1077 115.48C1071.22 111.74 1062.22 105.86 1057 102.42C1051.78 98.97 1043.45 93.99 1038.5 91.35C1033.55 88.7 1020.73 82.44 1010 77.42C999.27 72.4 982.63 65.25 973 61.51C963.38 57.78 952.35 53.64 948.5 52.3C944.65 50.96 932.27 47.7 921 45.04C909.73 42.39 897.35 39.29 893.5 38.16C889.65 37.03 881.77 35.19 876 34.07C870.23 32.95 857.96 30.9 848.75 29.52C839.54 28.13 826.71 26.51 820.25 25.9C813.79 25.3 800.51 24.51 790.75 24.15C780.99 23.79 773 23.84 773 24.25Z" />
	</g>
</svg>