<svg version="1.2" baseProfile="tiny-ps" xmlns="http://www.w3.org/2000/svg" viewBox="0 0 1280 1280" width="128" height="128">
	<title>New Project</title>
	<style>
		tspan { white-space:pre }
		.shp0 { fill: #3e83e6 } 
		.shp1 { fill: #fffeff } 
	</style>
	<path id="Path 1" class="shp0" d="M764.79 88.4C763.11 89.44 762.2 90.7 762.76 91.22C763.32 91.75 770.14 95.48 777.94 99.53C785.72 103.56 789.82 105.03 787.05 102.78C784.26 100.54 779.02 97.31 775.41 95.6C771.78 93.91 768.83 91.63 768.83 90.51C768.83 89.39 772.69 88.19 777.44 87.82L786.04 87.16C771.92 86.67 766.44 87.37 764.79 88.4ZM45.25 90.28C44.41 91.4 43.87 194.12 44.03 318.58C44.26 496.17 44.87 545.46 46.86 547.69C48.24 549.26 56.66 556.92 65.56 564.72C74.48 572.5 92.21 588.52 104.98 600.31C117.73 612.09 133.61 626.75 140.24 632.87C146.87 639 153.83 645.37 155.7 647.04C157.58 648.72 164.88 655.08 171.91 661.21C178.96 667.33 189.78 676.81 195.97 682.29C202.16 687.75 217.26 701.5 229.49 712.84C241.74 724.18 259.5 740.3 268.96 748.66C278.41 757.02 289.35 766.82 293.24 770.49C297.14 774.13 305.14 781.31 311.04 786.45C318.02 792.54 322.4 795.09 323.66 793.76C324.83 792.53 325.58 700.9 325.59 555.47C325.63 321.23 325.66 319.17 329.68 317.16C332.24 315.89 368.6 315.33 429.34 315.65L524.96 316.15C557.99 328.96 570.55 335.68 579.35 342.22C586.99 347.92 596.18 356.68 599.79 361.69C603.41 366.7 608.59 374.9 611.31 379.91C614.03 384.91 617.47 394.02 618.94 400.15C620.63 407.25 621.26 418.61 620.66 431.52C619.9 448.3 618.74 453.98 613.84 464.78C610.6 471.95 604.3 482.64 599.85 488.54C595.4 494.44 586.74 503.02 580.62 507.61C574.49 512.2 564.93 518.26 559.37 521.06C553.8 523.89 543.33 527.99 536.09 530.21C524.42 533.75 515.21 534.31 454.14 535.16C416.29 535.69 384.64 536.72 383.82 537.45C383 538.18 382.32 584.77 382.3 640.97C382.3 697.19 382.98 743.79 383.8 744.56C384.64 745.31 415.84 746.29 453.12 746.72C515.87 747.44 521.98 747.82 535.08 751.92C542.88 754.35 555.63 759.5 563.41 763.35C571.35 767.28 582.38 775.06 588.52 781.04C594.53 786.92 601.94 795.39 604.98 799.84C608.01 804.29 612.99 815.23 616.04 824.12C620.47 837.09 621.57 843.95 621.55 858.53C621.54 874.5 620.72 878.74 614.85 892.92C611.19 901.84 603.58 914.94 597.95 922.06C592.31 929.18 584.96 936.88 581.63 939.16C578.3 941.45 575.11 943.82 574.55 944.43C573.99 945.04 568.07 948.16 561.39 951.37C554.71 954.57 543.33 959.1 536.09 961.46C523.07 965.67 520.61 965.72 285.15 966.21C95.29 966.59 46.94 967.22 45.34 969.28C44.01 970.97 43.66 1010.14 44.33 1082.15L45.34 1192.44C90.81 1194.01 203.28 1193.92 324.62 1193.26C458.78 1192.53 553.52 1191.2 566.45 1189.88C578.14 1188.67 594.53 1186.63 602.88 1185.34C611.22 1184.03 630.35 1179.97 645.37 1176.28C660.41 1172.6 680.44 1166.7 689.9 1163.2C699.35 1159.67 712.56 1154.39 719.25 1151.44C725.93 1148.47 732.75 1145 734.43 1143.71C736.1 1142.42 741.11 1139.68 745.56 1137.64C750.01 1135.59 760.02 1129.82 767.82 1124.79C775.6 1119.77 786.54 1111.92 792.09 1107.35C797.66 1102.79 806.31 1094.94 811.32 1089.91C816.33 1084.89 823.27 1077.68 826.75 1073.88C830.2 1070.08 838.8 1058.32 845.82 1047.74C852.85 1037.17 862.51 1020.33 867.29 1010.32C872.08 1000.28 875.98 990.72 876 989.06C876 987.39 877.55 982.83 879.46 978.94C881.36 975.05 883.57 968.67 884.38 964.78C885.18 960.88 887.27 951.32 889 943.52C890.75 935.72 893.08 920.7 894.22 910.13C895.33 899.55 896.28 881.79 896.29 870.68C896.33 859.54 895.39 840.42 894.22 828.17C893.05 815.92 890.22 796.35 887.94 784.66C885.65 772.97 880.57 753.84 876.68 742.15C872.77 730.48 865.92 713.62 861.43 704.73C856.97 695.81 850.68 684.66 847.49 679.93C844.3 675.2 841.66 670.65 841.66 669.81C841.65 668.97 836.62 662.38 830.5 655.14C824.37 647.9 819.38 641.3 819.4 640.46C819.42 639.63 821.58 636.9 824.2 634.39C826.83 631.9 834.58 621.88 841.4 612.13C848.24 602.39 853.82 593.96 853.82 593.41C853.82 592.86 857.52 584.89 862.03 575.71C866.53 566.52 872.86 551.27 876.07 541.81C879.3 532.35 883.33 518.69 885.02 511.45C886.73 504.21 889.49 490.09 891.16 480.08C892.84 470.06 894.81 448.2 895.54 431.52C896.36 412.73 895.96 391.51 894.46 375.86C893.14 361.95 890.68 344.64 888.98 337.4C887.29 330.18 883.3 315.59 880.1 305.02C876.89 294.45 870.1 277.61 865.01 267.59C859.9 257.58 854.61 247.58 853.27 245.38C851.91 243.18 846.79 235.44 841.93 228.18C837.04 220.92 823.83 205.79 812.58 194.59C801.31 183.39 786.81 170.63 780.33 166.25C773.86 161.89 764.75 155.82 760.09 152.76C755.43 149.73 742.52 142.73 731.39 137.24C720.26 131.74 705.69 125.28 699.01 122.89C692.32 120.5 677.3 115.53 665.61 111.83C653.94 108.13 641.64 104.56 638.3 103.87C634.95 103.19 624.94 101.26 616.04 99.55C607.12 97.86 589.83 94.98 577.58 93.18C558.2 90.32 522.36 89.78 301.04 89.08C133.77 88.54 46.25 88.96 45.25 90.28Z" />
	<path id="Path 2" class="shp1" d="M768.99 90.35C768.9 91.54 770.42 93.13 772.38 93.88C774.31 94.61 787.29 102.97 801.2 112.46C815.12 121.93 830.15 132.91 834.6 136.85C839.05 140.78 848.89 150.41 856.46 158.24C864.05 166.06 874.27 177.93 879.19 184.61C884.13 191.29 889.77 198.92 891.74 201.55C893.69 204.2 896.85 208.76 898.74 211.67C900.6 214.6 905.26 222.45 909.07 229.14C912.89 235.82 917.42 245.38 919.19 250.39C920.93 255.4 924.61 264.05 927.33 269.62C930.07 275.18 933.28 283.37 934.51 287.83C935.71 292.28 937.7 300.47 938.9 306.03C940.09 311.6 941.99 320.25 943.09 325.26C944.21 330.27 945.92 339.37 946.91 345.5C947.91 351.62 949.72 366.65 950.96 378.9C952.51 394.35 952.93 478.84 952.34 655.14C951.61 875.18 951.06 911.7 948.27 928.34C946.51 938.92 944.19 952.58 943.13 958.7C942.06 964.83 939.65 974.84 937.77 980.97C935.88 987.09 931.99 999.38 929.13 1008.29C926.25 1017.19 922.82 1025.84 921.49 1027.5C920.18 1029.18 918.07 1033.73 916.8 1037.62C915.54 1041.53 909.94 1052 904.36 1060.9C898.77 1069.81 892.65 1079.72 890.71 1082.95C888.79 1086.16 882.7 1094.36 877.17 1101.17C871.64 1107.96 861.17 1119.47 853.89 1126.73C846.62 1133.99 837.02 1143.08 832.57 1146.94C828.12 1150.79 817.65 1158.84 809.3 1164.8C800.96 1170.79 790.59 1177.63 786.26 1180.02C781.96 1182.39 776.02 1185.6 773.11 1187.14C768.01 1189.81 767.98 1190 771.87 1191.94C774.4 1193.19 792.2 1193.52 819.42 1192.81C843.36 1192.18 871.13 1190.84 881.15 1189.82C891.16 1188.81 900.73 1187.38 902.4 1186.67C904.06 1185.93 909.54 1184.96 914.55 1184.48C919.55 1184.01 928.07 1182.88 933.49 1181.95C938.9 1181.05 943.68 1179.62 944.1 1178.78C944.54 1177.96 946.95 1177.26 949.44 1177.23C951.95 1177.21 961.29 1174.85 970.19 1171.99C979.1 1169.13 991.39 1164.94 997.51 1162.71C1003.64 1160.46 1015.47 1155.76 1023.81 1152.26C1032.15 1148.77 1048.98 1140.48 1061.25 1133.87C1073.5 1127.24 1091.26 1116.05 1100.72 1109C1110.19 1101.94 1124.31 1090.12 1132.09 1082.74C1139.89 1075.35 1150.64 1064.23 1156 1058.02C1161.35 1051.81 1167.37 1044.92 1169.4 1042.68C1171.42 1040.47 1176.58 1032.72 1180.88 1025.48C1185.17 1018.25 1190.28 1009.6 1192.27 1006.27C1194.24 1002.92 1198.03 995.64 1200.7 990.08C1203.37 984.51 1207.4 975.4 1209.65 969.84C1211.92 964.27 1215.14 955.16 1216.82 949.6C1218.51 944.03 1221.67 933.11 1223.85 925.31C1226.03 917.53 1228.81 904.32 1230.01 895.96C1231.21 887.62 1232.8 876.7 1233.54 871.69C1234.25 866.66 1235.25 770.14 1235.73 657.16C1236.34 516.41 1235.91 444.43 1234.39 428.48C1233.15 415.68 1230.67 396.55 1228.89 385.98C1227.1 375.41 1224.38 363.33 1222.87 359.16C1221.36 354.99 1220.59 351.57 1221.15 351.57C1221.69 351.57 1218.41 340.88 1213.82 327.79C1209.23 314.72 1201.38 296.28 1196.35 286.82C1191.35 277.35 1184 264.61 1180.04 258.48C1176.08 252.36 1167.65 240.97 1161.3 233.18C1154.95 225.38 1142.12 211.69 1132.82 202.72C1123.52 193.75 1110.44 182.27 1103.75 177.21C1097.09 172.15 1084.33 163.5 1075.44 157.95C1066.52 152.42 1051.5 143.99 1042.04 139.22C1032.58 134.46 1022.1 129.19 1018.76 127.53C1015.43 125.86 1001.77 120.9 988.4 116.51C975.06 112.13 959.11 107.1 952.98 105.38C946.88 103.65 937.77 101.4 932.76 100.39C927.74 99.36 917.72 97.58 910.5 96.42C903.26 95.27 889.59 93.44 880.14 92.34C870.68 91.26 841.84 89.88 816.05 89.27C783.18 88.49 769.11 88.82 768.99 90.35Z" />
</svg>