<svg version="1.2" baseProfile="tiny-ps" xmlns="http://www.w3.org/2000/svg" viewBox="0 0 1000 1000" width="128" height="128">
	<title>128</title>
	<style>
		tspan { white-space:pre }
		.shp0 { opacity: 0.949;fill: #28fdfd } 
		.shp1 { fill: #285a5a } 
	</style>
	<g id="Background">
		<path id="Path 0" class="shp0" d="M140.62 1.25C140.91 1.94 140.4 3.29 139.5 4.25C138.6 5.21 136.65 6 135.18 6.01C133.71 6.02 130.74 6.35 128.59 6.76C125.51 7.35 124.51 8.08 123.84 10.25C123.38 11.76 122.21 13.19 121.25 13.42C120.29 13.64 117.36 14.09 114.75 14.42C110.58 14.93 109.88 15.37 109 18C108.27 20.2 107.14 21.21 104.75 21.79C102.43 22.36 101.07 23.53 100 25.88C99.01 28.06 97.56 29.4 95.72 29.84C93.7 30.32 92.67 31.39 91.97 33.75C91.25 36.15 90.28 37.14 88.25 37.55C86.3 37.94 85.31 38.88 84.86 40.8C84.48 42.41 82.77 44.41 80.61 45.75C78.63 46.99 77 48.79 76.99 49.75C76.99 50.71 76.54 53.19 75.99 55.25C75.33 57.77 74.1 59.46 72.25 60.38C69.86 61.59 69.42 62.54 68.87 67.63C68.38 72.19 67.71 73.9 65.87 75.3C64.57 76.28 63.05 77.22 62.5 77.38C61.9 77.55 61.3 85.1 61 96.08C60.67 108.07 60.06 115.29 59.25 116.75C58.26 118.52 58 152.89 58.02 279.25C58.03 416.9 57.83 439.78 56.6 441.5C55.23 443.4 53.87 443.51 28.83 443.75C8.85 443.94 2.19 443.7 1.21 442.75C0.15 441.73 -0.08 452.33 -0.01 501C0.05 546.06 0.36 560.92 1.28 562.21C2.38 563.75 5.15 563.93 28.75 563.96C50.71 563.99 55.24 564.24 56.5 565.5C57.82 566.82 58 585.94 58 725.5C58 850.43 58.26 884.48 59.25 886.25C60.04 887.68 60.68 894.6 61 905.2L61.5 921.89C66.92 927.4 68.19 929.83 68.56 932.5C68.87 934.7 69.29 937.4 69.49 938.5C69.69 939.6 71.18 941.85 72.8 943.5C74.42 945.15 76.25 948.08 76.86 950C77.62 952.41 78.91 953.89 80.99 954.75C83.01 955.59 84.18 956.91 84.55 958.75C84.95 960.75 85.9 961.7 88.05 962.25C90.28 962.82 91.2 963.79 91.83 966.25C92.47 968.8 93.34 969.66 95.83 970.25C98.15 970.8 99.27 971.81 100 974C100.66 975.97 102.12 977.45 104.25 978.32C106.34 979.17 107.77 980.59 108.25 982.32C108.85 984.46 109.76 985.11 112.75 985.56C114.81 985.86 117.51 986.31 118.75 986.56C119.99 986.8 121.62 988.24 122.37 989.75C123.28 991.58 124.88 992.76 127.12 993.26C128.98 993.68 131.74 994.02 133.25 994.01C134.76 994.01 136.71 994.79 137.57 995.75C138.44 996.71 138.89 998.06 138.57 998.75C138.11 999.75 211.36 1000 503 1000C794.64 1000 867.89 999.75 867.43 998.75C867.11 998.06 867.6 996.71 868.5 995.75C869.4 994.79 871.35 994 872.82 993.99C874.29 993.98 877.19 993.65 879.25 993.24C882.05 992.69 883.33 991.78 884.25 989.67C885.01 987.94 886.47 986.66 888 986.37C889.38 986.12 892.19 985.48 894.25 984.95C896.81 984.3 898.32 983.21 899 981.5C899.65 979.89 901.24 978.65 903.5 978C906.05 977.27 907.14 976.32 907.5 974.5C907.83 972.83 909.17 971.5 911.5 970.5C913.83 969.5 915.17 968.17 915.5 966.5C915.82 964.88 917.14 963.51 919.25 962.61C921.49 961.66 922.7 960.34 923.14 958.36C923.57 956.49 924.87 954.98 926.92 954C929.58 952.73 930.2 951.71 931.02 947.25C931.78 943.19 932.62 941.61 934.75 940.27C936.26 939.32 937.83 938.09 938.23 937.52C938.64 936.96 938.98 934.14 938.98 931.25C938.99 928.27 939.54 925.57 940.25 925C940.94 924.45 942.63 923.14 944 922.09L946.5 920.18C947.44 579.51 947.68 557.81 949 556.98C949.83 556.45 961.03 556.02 974.25 556.02C989.43 556.01 998 556.36 998 557C998 557.55 998.45 558 999 558C999.66 558 1000 537.91 1000.01 499.75C1000.02 454.98 999.73 440.87 998.76 438.76L997.5 436.02C953.98 436 949.75 435.75 948.5 434.5C947.18 433.18 947 412.45 946.98 260.25C946.96 156.64 946.58 85.9 946.02 83.5C945.5 81.3 944.28 78.95 943.29 78.28C942.31 77.62 940.94 76.6 940.25 76.03C939.53 75.44 939 72.68 939 69.5C939 65.94 938.47 63.47 937.5 62.5C936.67 61.67 935.1 60.77 934 60.5C932.9 60.23 931.8 58.99 931.56 57.75C931.31 56.51 930.86 53.81 930.56 51.75C930.13 48.86 929.31 47.65 927 46.5C925.27 45.63 923.58 43.73 923 42C922.42 40.27 920.73 38.37 919 37.5C917.32 36.66 915.63 34.79 915.16 33.25C914.56 31.29 913.41 30.28 911.16 29.75C908.86 29.2 907.73 28.19 907 26C906.29 23.87 905.06 22.72 902.75 22.04C900.88 21.48 898.97 19.99 898.25 18.54C897.43 16.88 895.7 15.67 893.25 15.05C891.19 14.52 888.38 13.86 887 13.57C885.62 13.29 883.83 11.8 883 10.24C881.88 8.13 880.48 7.24 877.5 6.72C875.3 6.34 872.04 6.02 870.25 6.01C868.43 6 866.31 5.23 865.43 4.25C864.56 3.29 864.11 1.94 864.43 1.25C864.89 0.25 792.15 0 502.55 0C212.97 0 140.2 0.25 140.62 1.25Z" />
		<path id="Path 1" class="shp1" d="M203.5 40.02C197.87 40.44 188.25 42.12 181.5 43.88C174.9 45.59 168.6 47.01 167.5 47.02C166.4 47.03 163.7 47.95 161.5 49.07C159.3 50.18 154.96 52.53 151.85 54.29C148.75 56.06 144.3 58.85 141.96 60.5C139.62 62.15 135.51 65.75 132.81 68.5C130.11 71.25 126.86 75.53 125.58 78C124.3 80.47 122.06 84.3 120.6 86.5C119.15 88.7 117.46 92.97 116.85 96C116.24 99.03 114.67 104.31 113.37 107.75C111.72 112.11 110.7 117.7 110.02 126.25C109.45 133.49 109.03 202.13 109.01 294C108.97 446.23 108.93 449.58 107.02 453.5C105.94 455.7 102.91 459.78 100.28 462.56C97.65 465.34 94.15 467.95 92.5 468.37C90.85 468.79 87.14 470.23 84.25 471.56C81.36 472.9 76.86 474.4 74.25 474.9C71.64 475.39 65.22 476.12 60 476.51C53.35 477 49.97 477.71 48.72 478.86C47.12 480.33 46.93 482.57 46.93 500C46.93 517.42 47.12 519.68 48.72 521.16C49.74 522.11 53.9 523.32 58.5 524.02C62.9 524.68 68.75 526.12 71.5 527.22C74.25 528.32 79.22 529.96 82.54 530.86C85.87 531.76 90.28 533.85 92.36 535.5C94.43 537.15 97.34 539.64 98.81 541.04C100.29 542.44 102.4 545.12 103.5 546.99C104.6 548.87 106.17 551.55 107 552.95C108.31 555.18 108.57 575.91 109.09 716.5C109.48 825.11 110.02 878.96 110.74 882C111.33 884.48 112.46 888.08 113.27 890C114.07 891.92 115.5 897.1 116.45 901.5C117.4 905.9 119.14 910.85 120.3 912.5C121.47 914.15 123.64 917.98 125.13 921C126.63 924.02 130.28 928.98 133.26 932C136.24 935.02 140.66 939.02 143.09 940.87C145.51 942.72 149.75 945.32 152.5 946.63C155.25 947.95 158.63 949.68 160 950.47C161.38 951.26 168.35 953.53 175.5 955.51C182.65 957.5 192.32 959.55 197 960.08C202.31 960.68 320.08 960.94 510.5 960.77C787.5 960.52 815.96 960.34 820.5 958.88C823.25 958 830.67 955.83 837 954.07C843.33 952.31 849.17 950.27 850 949.55C850.83 948.82 853.75 947.04 856.5 945.59C859.25 944.13 863.52 941.41 866 939.53C868.48 937.66 871.33 935.31 872.34 934.31C873.35 933.32 876.4 929.35 879.12 925.5C881.84 921.65 884.06 918.05 884.06 917.5C884.06 916.95 885.17 915.04 886.53 913.25C887.97 911.36 889.65 906.97 890.55 902.75C891.4 898.76 893.32 891.9 894.8 887.5L897.5 879.5C898.46 563.76 898.64 549.24 900.15 546.5C901.05 544.85 904.43 540.99 907.65 537.91C911.04 534.67 915.18 531.78 917.5 531.04C919.7 530.33 923.52 528.84 926 527.73C928.8 526.47 935.66 525.1 944.16 524.1C951.67 523.22 958.19 522.11 958.66 521.63C959.12 521.16 959.82 518.91 960.21 516.63C960.59 514.36 960.93 505.19 960.96 496.25L961 480C956.74 476.85 954.49 475.95 953.25 475.97C952.01 475.98 946.84 474.63 941.75 472.95C936.66 471.28 930.48 469.45 928 468.88C925.52 468.32 920.8 466.07 917.5 463.89C914.2 461.71 911.16 459.94 910.75 459.96C910.34 459.98 907.98 457.3 905.5 454C903.02 450.7 900.48 446.76 899.85 445.25C899.01 443.24 898.74 416.47 898.83 345.5C898.9 292.15 898.58 219.93 898.11 185C897.37 129.82 897.04 120.78 895.57 116C894.64 112.97 892.79 106.22 891.46 101C890.13 95.78 887.91 89.81 886.52 87.75C885.13 85.69 884 83.66 884.01 83.25C884.01 82.84 883 81.09 881.76 79.38C880.52 77.66 877.59 73.72 875.25 70.63C872.91 67.53 869.09 63.8 866.75 62.34C864.41 60.87 862.05 59.09 861.5 58.38C860.95 57.67 856.67 55.11 852 52.69C847.21 50.22 838.91 47.1 833 45.54C827.23 44.02 819.8 42.06 816.5 41.18C811.08 39.74 781.77 39.57 512 39.44C347.82 39.35 209 39.62 203.5 40.02Z" />
		<path id="Path 2" class="shp0" d="M530.5 118.95C528.85 119.4 522.44 119.82 516.25 119.88C510.06 119.95 502.41 120.64 499.25 121.43C496.09 122.21 485.85 123.59 476.5 124.49C463.54 125.75 457.48 126.82 451 129.02C446.32 130.6 439.46 132.37 435.75 132.95C432.04 133.53 427.88 134.45 426.5 135C425.13 135.55 423.77 136.45 423.5 137C423.23 137.55 419.74 138.97 415.75 140.15C411.76 141.34 406.25 143.56 403.5 145.08C400.75 146.61 396.93 148.12 395 148.45C393.07 148.78 389.48 150.31 387 151.85C384.52 153.4 380.93 155.17 379 155.8C377.07 156.42 373.7 158.13 371.5 159.59C369.3 161.05 365.93 163.03 364 163.99C362.07 164.95 359.82 166.38 359 167.18C358.18 167.98 355.02 170.29 352 172.33C348.98 174.37 344.93 177.18 343 178.59C341.07 179.99 335.96 184.37 331.64 188.32C327.32 192.27 323.04 196.3 322.14 197.27C321.24 198.24 318.58 201.17 316.23 203.77C313.88 206.37 310.57 210.07 308.87 212C307.18 213.93 304.38 217.72 302.65 220.43C300.92 223.15 297.82 227.87 295.77 230.93C293.71 234 290.9 238.86 289.52 241.75C288.13 244.64 286.1 248.24 285 249.75C283.9 251.26 282.22 255.47 281.25 259.1C280.29 262.73 278.74 266.56 277.81 267.6C276.88 268.65 275.41 272.2 274.55 275.5C273.69 278.8 273 282.18 273.01 283C273.03 283.82 271.58 289 269.8 294.5L266.56 304.5L266.54 367.5C270.72 379.9 272.64 387.1 273.5 391.5C274.36 395.9 275.93 400.85 276.98 402.5C278.04 404.15 279.84 408.2 281 411.5C282.15 414.8 284.44 419.52 286.07 422C287.71 424.48 289.03 427.06 289.02 427.75C289.01 428.44 290.8 431.36 293.01 434.25C295.21 437.14 297 439.95 296.98 440.5C296.96 441.05 298.14 442.63 299.59 444C301.05 445.38 303.25 448.07 304.5 450C305.74 451.93 310.52 457.51 315.13 462.41C319.73 467.31 327.32 474.61 332 478.64C336.68 482.66 341.63 487.02 343 488.32C344.38 489.61 347.19 491.65 349.25 492.84C351.31 494.03 353 495.45 353 496C353 496.55 355.36 498.19 358.25 499.64C361.14 501.09 365.07 503.57 367 505.15C368.93 506.72 370.95 508.01 371.5 508C372.05 507.99 374.07 509.3 376 510.9C377.93 512.5 381.75 514.78 384.5 515.97C387.25 517.16 390.4 518.94 391.5 519.93C392.6 520.92 395.52 522.38 398 523.18C400.48 523.98 404.07 525.78 406 527.18C407.93 528.58 411.52 530.4 414 531.22C416.48 532.04 420.07 533.81 422 535.15C423.93 536.49 427.98 538.2 431 538.94C434.02 539.69 438.75 541.55 441.5 543.07C444.25 544.6 448.98 546.47 452 547.23C455.02 547.99 458.85 549.55 460.5 550.7C462.15 551.86 466.43 553.55 470 554.47C473.57 555.39 478.07 557.2 480 558.5C481.93 559.8 486.43 561.61 490 562.53C493.57 563.45 498.3 565.23 500.5 566.5C502.7 567.76 507.09 569.52 510.25 570.4C513.41 571.28 518.14 573.36 520.75 575.01C523.36 576.67 526.17 578 527 577.98C527.83 577.95 530.75 579.45 533.5 581.31C536.25 583.17 539.63 585.08 541 585.54C542.38 586 544.85 587.55 546.5 589C548.15 590.44 551.52 592.78 554 594.2C556.48 595.61 562.27 600.54 566.87 605.14C572.46 610.72 576.45 615.79 578.87 620.39C580.87 624.18 583.04 628.23 583.7 629.39C584.37 630.55 585.37 634.65 585.93 638.5C586.5 642.35 586.96 649.77 586.96 655C586.96 660.23 586.51 667.65 585.96 671.5C585.25 676.45 583.97 680.11 581.6 684C579.76 687.02 577.99 690.4 577.68 691.5C577.36 692.6 573.37 697.26 568.8 701.86C564.24 706.46 559.15 710.9 557.5 711.73C555.85 712.56 553.6 714.05 552.5 715.04C551.4 716.04 548.02 717.79 545 718.95C541.98 720.1 537.92 721.92 536 722.99C534.08 724.06 527.77 725.87 522 727.01C516.23 728.15 509.25 729.8 506.5 730.68C502.62 731.93 495.58 732.39 475 732.75C457.45 733.05 445.97 732.81 441 732.04C436.88 731.39 430.13 730.22 426 729.43C421.88 728.65 412.88 727.36 406 726.58C399.11 725.8 391.03 724.23 388 723.08C384.98 721.93 378.68 720.27 374 719.4C369.32 718.53 362.57 716.53 359 714.95C355.43 713.38 350.02 711.6 347 711C343.98 710.4 338.57 708.62 335 707.04C331.43 705.47 326.48 703.65 324 703.01C321.52 702.36 317.48 700.56 315 699C312.52 697.44 308.48 695.62 306 694.96C303.52 694.29 299.77 692.57 297.66 691.12C294.82 689.18 293.43 688.76 292.29 689.5C291.45 690.05 288.84 696.35 286.49 703.5C284.14 710.65 281.67 720.1 281.01 724.5C280.34 728.9 278.69 735.42 277.35 739C276.01 742.58 274.22 749.77 273.37 755C272.53 760.23 270.81 767.2 269.56 770.5C268.3 773.8 266.54 780.89 265.64 786.25C264.74 791.61 262.94 798.81 261.63 802.25C260.33 805.69 258.95 810.3 258.56 812.5C258.17 814.7 258.31 818.3 258.88 820.5C259.68 823.61 260.7 824.89 263.45 826.25C265.4 827.21 267.68 828 268.5 828C269.32 828 272.81 829.51 276.25 831.35C279.69 833.19 284.98 835.49 288 836.47C291.02 837.45 294.85 839.08 296.5 840.1C298.15 841.11 303.32 842.69 308 843.59C312.68 844.5 319.65 846.49 323.5 848.01C327.35 849.54 333.65 851.3 337.5 851.93C341.35 852.56 347.2 853.94 350.5 854.99C353.8 856.04 359.2 857.35 362.5 857.9C365.8 858.44 371.65 859.18 375.5 859.54C379.35 859.89 387.45 861.3 393.5 862.66C400.51 864.23 410.48 865.5 421 866.14C430.07 866.7 452.13 867.15 470 867.14C487.88 867.13 507.9 866.64 514.5 866.05C521.1 865.46 528.98 864.3 532 863.47C535.02 862.64 543.58 860.85 551 859.51C558.42 858.16 566.75 856.18 569.5 855.11C572.25 854.04 578.55 852.65 583.5 852.01C589.37 851.25 594.59 849.86 598.5 848.01C601.8 846.44 606.75 844.62 609.5 843.96C612.25 843.3 616.75 841.53 619.5 840.03C622.25 838.53 626.86 836.56 629.75 835.65C632.64 834.74 635.34 833.46 635.75 832.79C636.16 832.13 639.31 830.33 642.75 828.79C646.19 827.26 649.23 825.55 649.5 825C649.77 824.45 653.15 822.42 657 820.5C660.85 818.58 664 816.55 664 816C664 815.45 665.69 814.16 667.75 813.12C669.81 812.09 672.17 810.45 673 809.48C673.83 808.52 676.75 806.25 679.5 804.46C682.25 802.66 688.55 797.18 693.5 792.27C698.45 787.36 704.52 780.75 707 777.57C709.48 774.39 713.19 769.81 715.25 767.39C717.31 764.98 719 762.55 719 762C719 761.45 720.31 759.54 721.92 757.75C723.53 755.96 725.61 752.7 726.55 750.5C727.49 748.3 729.3 745.15 730.58 743.5C731.86 741.85 733.67 738.25 734.61 735.5C735.54 732.75 737.09 729.38 738.07 728C739.04 726.63 740.81 721.9 742.01 717.5C743.21 713.1 744.75 708.6 745.43 707.5C746.11 706.4 747.2 703.92 747.85 702C748.5 700.08 749.73 693.1 750.58 686.5C751.44 679.9 752.78 671.8 753.57 668.5C754.36 665.2 755.27 656.2 755.6 648.5C755.92 640.75 755.72 630.93 755.14 626.5C754.57 622.1 753.43 614.9 752.61 610.5C751.8 606.1 750.63 598.45 750.02 593.5C749.29 587.59 747.95 582.44 746.11 578.5C744.56 575.2 742.97 570.92 742.56 569C742.16 567.08 739.36 560.55 736.35 554.5C733.34 548.45 729.44 541.22 727.69 538.43C725.93 535.65 723.15 531.77 721.5 529.81C719.85 527.86 716.7 523.65 714.5 520.46C712.3 517.27 708.28 512.15 705.56 509.08C702.85 506.01 697 500.2 692.56 496.16C688.13 492.12 682.02 487.21 679 485.23C675.98 483.26 673.05 481.04 672.5 480.29C671.95 479.55 669.87 477.94 667.88 476.72C665.89 475.5 662.52 473.24 660.38 471.7C658.25 470.16 654.92 467.8 653 466.47C651.08 465.13 646.35 462.43 642.5 460.46C638.65 458.49 632.51 455.22 628.84 453.19C625.18 451.16 620.01 448.45 617.34 447.16C614.68 445.87 610.02 443.54 607 441.98C603.98 440.42 598.8 438.31 595.5 437.28C592.2 436.26 588.15 434.47 586.5 433.3C584.85 432.14 581.25 430.63 578.5 429.96C575.75 429.29 571.25 427.5 568.5 425.98C565.75 424.46 560.8 422.45 557.5 421.51C554.2 420.56 550.38 418.98 549 417.98C547.63 416.99 543.13 415.21 539 414.04C534.88 412.86 530.38 411.08 529 410.06C527.63 409.05 523.13 407.22 519 405.99C514.88 404.77 510.38 402.9 509 401.84C507.63 400.79 504.25 399.3 501.5 398.53C498.75 397.76 495.15 396.1 493.5 394.84C491.85 393.58 488.25 391.71 485.5 390.68C482.75 389.64 479.04 387.49 477.25 385.9C475.46 384.3 473.32 383 472.5 383C471.68 383 468.19 380.88 464.75 378.29C461.31 375.71 456.21 371.54 453.4 369.04C450.6 366.54 446.15 361.35 443.51 357.5C440.08 352.5 437.85 347.65 435.68 340.5C433.6 333.63 432.64 328.31 432.6 323.5C432.58 319.65 433.08 315.15 433.72 313.5C434.37 311.85 435.81 307.35 436.92 303.5C438.11 299.4 440.58 294.22 442.89 291C445.06 287.98 449.01 283.34 451.67 280.71C454.32 278.07 458.52 274.86 461 273.57C463.48 272.27 466.4 270.24 467.5 269.04C468.6 267.85 471.98 266.17 475 265.31C478.02 264.45 482.3 262.7 484.5 261.42C487.08 259.91 492.22 258.51 499 257.45C504.77 256.54 512.42 255.36 516 254.8C519.58 254.25 530.6 253.59 540.5 253.33C550.91 253.05 560.82 253.29 564 253.89C567.02 254.45 573.1 255.37 577.5 255.92C581.9 256.48 590 257.44 595.5 258.06C601 258.69 608.88 260.25 613 261.53C617.13 262.82 624.66 264.57 629.75 265.43C634.84 266.29 641.25 268.13 644 269.5C646.75 270.88 651.81 272.58 655.25 273.3C658.69 274.01 663.52 275.74 666 277.14C668.48 278.54 673.65 280.7 677.5 281.96C684.4 284.2 684.55 284.21 687.77 282.37C689.56 281.34 691.67 279.15 692.45 277.5C693.22 275.85 694.39 271.35 695.05 267.5C695.71 263.65 697.33 257.8 698.65 254.5C699.97 251.2 701.94 244.11 703.03 238.75C704.11 233.39 705.85 227.31 706.89 225.25C707.92 223.19 709.67 217 710.76 211.5C711.85 206 713.76 199.25 715 196.5C716.25 193.75 717.92 187.68 718.72 183C719.51 178.32 721.07 172.47 722.18 170C723.29 167.53 724.59 164.15 725.08 162.5C725.88 159.74 725.57 159.15 721.23 155.19C717.69 151.97 714.74 150.37 709.5 148.85C705.65 147.74 700.59 145.74 698.25 144.41C695.91 143.09 690.74 141.36 686.75 140.57C682.76 139.78 677.25 138.17 674.5 137C671.75 135.82 665 133.97 659.5 132.89C654 131.81 646.8 130.08 643.5 129.05C640.2 128.02 636.38 126.93 635 126.62C633.63 126.32 625.08 125.34 616 124.45C606.92 123.56 596.35 122.4 592.5 121.87C588.65 121.34 578.98 120.49 571 119.98C563.02 119.47 551.33 118.84 545 118.59C538.67 118.34 532.15 118.5 530.5 118.95Z" />
	</g>
</svg>